# xmcd
#
# Track frame offsets:
#	150
#	16107
#	30021
#	47087
#	63147
#	80112
#	95734
#	115475
#	131886
#	149615
#	163106
#	179132
#	194845
#	207836
#	222289
#	238355
#	251956
#	267735
#	280768
#	298126
#
# Disc length: 4188 seconds
#
# Revision: 0
# Processed by: cddbd v1.5.2PL0 Copyright (c) Steve Scherf et al.
# Submitted via: EZCDAudioConverter 3.1.0.1
#
DISCID=4d105a14
DTITLE=Nu Country Traxx Volume 212 US
DYEAR=2016
DGENRE=country
TTITLE0=Dierks Bentley - Black
TTITLE1=Florida Georgia Line ft. Backstreet Boys - God, Your Mama, And Me
TTITLE2=William Michael Morgan - Missing
TTITLE3=LoCash - Ring On Every Finger
TTITLE4=Brett Young - In Case You Didn't Know
TTITLE5=Tucker Beathard - Momma And Jesus
TTITLE6=Little Big Town - Better Man
TTITLE7=Drake White - Makin' Me Look Good Again
TTITLE8=Billy Currington - Do I Make You Wanna
TTITLE9=Ryan Kinder - Close
TTITLE10=Shane Owens - Country Never Goes Out Of Style
TTITLE11=Jeremy Bowman - Like A Song On The Radio
TTITLE12=Jackie Lee - Getting Over You
TTITLE13=Chad Brownlee - Somethin' We Shouldn't Do
TTITLE14=Bobby Wills - Tougher Than Love
TTITLE15=Peyton Davis - Nowhere America
TTITLE16=KayLyn - Show You Around
TTITLE17=Brett Eldredge ft. Mehan Trainor - Baby, It's Cold Outside
TTITLE18=Kacey Musgraves ft. Leon Bridges - Present Without A Bow
TTITLE19=Lauren Lizbeth - Holidaze
EXTD=
EXTT0=
EXTT1=
EXTT2=
EXTT3=
EXTT4=
EXTT5=
EXTT6=
EXTT7=
EXTT8=
EXTT9=
EXTT10=
EXTT11=
EXTT12=
EXTT13=
EXTT14=
EXTT15=
EXTT16=
EXTT17=
EXTT18=
EXTT19=
PLAYORDER=
